<mxfile host="app.diagrams.net" modified="2022-01-20T14:36:57.490Z" agent="5.0 (Windows NT 10.0; Win64; x64) AppleWebKit/537.36 (KHTML, like Gecko) Chrome/97.0.4692.71 Safari/537.36" etag="bI2A0I79YtXmjUR9uOYk" version="16.2.4" type="github">
  <diagram id="kgpKYQtTHZ0yAKxKKP6v" name="Page-1">
    <mxGraphModel dx="1153" dy="714" grid="1" gridSize="10" guides="1" tooltips="1" connect="1" arrows="1" fold="1" page="1" pageScale="1" pageWidth="850" pageHeight="1100" background="#F1FAEE" math="0" shadow="0">
      <root>
        <mxCell id="0" />
        <mxCell id="1" parent="0" />
        <mxCell id="HKmQ01wHmtJZZ-o9WXv5-14" value="«interface»&lt;br&gt;&lt;b&gt;Job&lt;/b&gt;" style="html=1;fillColor=#A8DADC;strokeColor=#457B9D;fontColor=#1D3557;" vertex="1" parent="1">
          <mxGeometry x="125" y="130" width="110" height="50" as="geometry" />
        </mxCell>
        <mxCell id="HKmQ01wHmtJZZ-o9WXv5-19" value="" style="endArrow=block;dashed=1;endFill=0;endSize=12;html=1;rounded=0;entryX=0.5;entryY=1;entryDx=0;entryDy=0;startArrow=none;labelBackgroundColor=#F1FAEE;strokeColor=#457B9D;fontColor=#1D3557;" edge="1" parent="1" source="HKmQ01wHmtJZZ-o9WXv5-9" target="HKmQ01wHmtJZZ-o9WXv5-14">
          <mxGeometry width="160" relative="1" as="geometry">
            <mxPoint x="180" y="320" as="sourcePoint" />
            <mxPoint x="320" y="260" as="targetPoint" />
            <Array as="points" />
          </mxGeometry>
        </mxCell>
        <mxCell id="HKmQ01wHmtJZZ-o9WXv5-9" value="HealthStatusJob" style="swimlane;fontStyle=1;align=center;verticalAlign=top;childLayout=stackLayout;horizontal=1;startSize=26;horizontalStack=0;resizeParent=1;resizeParentMax=0;resizeLast=0;collapsible=1;marginBottom=0;fillColor=#A8DADC;strokeColor=#457B9D;fontColor=#1D3557;" vertex="1" parent="1">
          <mxGeometry x="100" y="270" width="160" height="82" as="geometry" />
        </mxCell>
        <mxCell id="HKmQ01wHmtJZZ-o9WXv5-10" value="+ field: type" style="text;strokeColor=none;fillColor=none;align=left;verticalAlign=top;spacingLeft=4;spacingRight=4;overflow=hidden;rotatable=0;points=[[0,0.5],[1,0.5]];portConstraint=eastwest;fontColor=#1D3557;" vertex="1" parent="HKmQ01wHmtJZZ-o9WXv5-9">
          <mxGeometry y="26" width="160" height="22" as="geometry" />
        </mxCell>
        <mxCell id="HKmQ01wHmtJZZ-o9WXv5-11" value="" style="line;strokeWidth=1;fillColor=none;align=left;verticalAlign=middle;spacingTop=-1;spacingLeft=3;spacingRight=3;rotatable=0;labelPosition=right;points=[];portConstraint=eastwest;labelBackgroundColor=#F1FAEE;strokeColor=#457B9D;fontColor=#1D3557;" vertex="1" parent="HKmQ01wHmtJZZ-o9WXv5-9">
          <mxGeometry y="48" width="160" height="8" as="geometry" />
        </mxCell>
        <mxCell id="HKmQ01wHmtJZZ-o9WXv5-12" value="+ method(type): type" style="text;strokeColor=none;fillColor=none;align=left;verticalAlign=top;spacingLeft=4;spacingRight=4;overflow=hidden;rotatable=0;points=[[0,0.5],[1,0.5]];portConstraint=eastwest;fontColor=#1D3557;" vertex="1" parent="HKmQ01wHmtJZZ-o9WXv5-9">
          <mxGeometry y="56" width="160" height="26" as="geometry" />
        </mxCell>
        <mxCell id="HKmQ01wHmtJZZ-o9WXv5-20" value="" style="endArrow=none;dashed=1;endFill=0;endSize=12;html=1;rounded=0;entryX=0.5;entryY=1;entryDx=0;entryDy=0;labelBackgroundColor=#F1FAEE;strokeColor=#457B9D;fontColor=#1D3557;" edge="1" parent="1" target="HKmQ01wHmtJZZ-o9WXv5-9">
          <mxGeometry width="160" relative="1" as="geometry">
            <mxPoint x="180" y="320" as="sourcePoint" />
            <mxPoint x="180" y="180" as="targetPoint" />
            <Array as="points">
              <mxPoint x="180" y="250" />
            </Array>
          </mxGeometry>
        </mxCell>
        <mxCell id="HKmQ01wHmtJZZ-o9WXv5-21" value="dispatch" style="html=1;verticalAlign=bottom;startArrow=oval;startFill=1;endArrow=block;startSize=8;rounded=0;labelBackgroundColor=#F1FAEE;strokeColor=#457B9D;fontColor=#1D3557;" edge="1" parent="1" target="HKmQ01wHmtJZZ-o9WXv5-22">
          <mxGeometry width="60" relative="1" as="geometry">
            <mxPoint x="260" y="310.44" as="sourcePoint" />
            <mxPoint x="320" y="310.44" as="targetPoint" />
          </mxGeometry>
        </mxCell>
        <mxCell id="HKmQ01wHmtJZZ-o9WXv5-22" value="HealthStatusService" style="swimlane;fontStyle=0;childLayout=stackLayout;horizontal=1;startSize=26;fillColor=none;horizontalStack=0;resizeParent=1;resizeParentMax=0;resizeLast=0;collapsible=1;marginBottom=0;strokeColor=#457B9D;fontColor=#1D3557;" vertex="1" parent="1">
          <mxGeometry x="350" y="260" width="140" height="90" as="geometry" />
        </mxCell>
        <mxCell id="HKmQ01wHmtJZZ-o9WXv5-24" value="+EmailHealthIndicator" style="text;strokeColor=none;fillColor=none;align=left;verticalAlign=top;spacingLeft=4;spacingRight=4;overflow=hidden;rotatable=0;points=[[0,0.5],[1,0.5]];portConstraint=eastwest;fontColor=#1D3557;" vertex="1" parent="HKmQ01wHmtJZZ-o9WXv5-22">
          <mxGeometry y="26" width="140" height="26" as="geometry" />
        </mxCell>
        <mxCell id="HKmQ01wHmtJZZ-o9WXv5-25" value="+PositionSnapshotCacheHealthIndicator" style="text;strokeColor=none;fillColor=none;align=left;verticalAlign=top;spacingLeft=4;spacingRight=4;overflow=hidden;rotatable=0;points=[[0,0.5],[1,0.5]];portConstraint=eastwest;fontColor=#1D3557;" vertex="1" parent="HKmQ01wHmtJZZ-o9WXv5-22">
          <mxGeometry y="52" width="140" height="38" as="geometry" />
        </mxCell>
        <mxCell id="HKmQ01wHmtJZZ-o9WXv5-26" value="" style="html=1;points=[];perimeter=orthogonalPerimeter;fillColor=#A8DADC;strokeColor=#457B9D;fontColor=#1D3557;" vertex="1" parent="1">
          <mxGeometry x="550" y="265" width="10" height="80" as="geometry" />
        </mxCell>
        <mxCell id="HKmQ01wHmtJZZ-o9WXv5-27" value="dispatch" style="html=1;verticalAlign=bottom;endArrow=block;rounded=0;exitX=0.995;exitY=0.114;exitDx=0;exitDy=0;exitPerimeter=0;labelBackgroundColor=#F1FAEE;strokeColor=#457B9D;fontColor=#1D3557;" edge="1" parent="1" source="HKmQ01wHmtJZZ-o9WXv5-22">
          <mxGeometry relative="1" as="geometry">
            <mxPoint x="510" y="272" as="sourcePoint" />
            <mxPoint x="555" y="270" as="targetPoint" />
          </mxGeometry>
        </mxCell>
        <mxCell id="HKmQ01wHmtJZZ-o9WXv5-28" value="return" style="html=1;verticalAlign=bottom;endArrow=open;dashed=1;endSize=8;rounded=0;entryX=1;entryY=0.5;entryDx=0;entryDy=0;labelBackgroundColor=#F1FAEE;strokeColor=#457B9D;fontColor=#1D3557;" edge="1" source="HKmQ01wHmtJZZ-o9WXv5-26" parent="1" target="HKmQ01wHmtJZZ-o9WXv5-25">
          <mxGeometry relative="1" as="geometry">
            <mxPoint x="500" y="333" as="targetPoint" />
            <mxPoint x="510" y="342" as="sourcePoint" />
            <Array as="points">
              <mxPoint x="510" y="333" />
            </Array>
          </mxGeometry>
        </mxCell>
        <mxCell id="HKmQ01wHmtJZZ-o9WXv5-29" value="Health Indicators" style="html=1;fillColor=#A8DADC;strokeColor=#457B9D;fontColor=#1D3557;" vertex="1" parent="1">
          <mxGeometry x="560" y="280" width="110" height="50" as="geometry" />
        </mxCell>
        <mxCell id="HKmQ01wHmtJZZ-o9WXv5-30" value="dispatch" style="html=1;verticalAlign=bottom;startArrow=oval;startFill=1;endArrow=block;startSize=8;rounded=0;labelBackgroundColor=#F1FAEE;strokeColor=#457B9D;fontColor=#1D3557;" edge="1" parent="1" source="HKmQ01wHmtJZZ-o9WXv5-25">
          <mxGeometry width="60" relative="1" as="geometry">
            <mxPoint x="400" y="400" as="sourcePoint" />
            <mxPoint x="420" y="410" as="targetPoint" />
          </mxGeometry>
        </mxCell>
        <mxCell id="HKmQ01wHmtJZZ-o9WXv5-32" value="Publisher" style="swimlane;fontStyle=0;childLayout=stackLayout;horizontal=1;startSize=26;fillColor=none;horizontalStack=0;resizeParent=1;resizeParentMax=0;resizeLast=0;collapsible=1;marginBottom=0;strokeColor=#457B9D;fontColor=#1D3557;" vertex="1" parent="1">
          <mxGeometry x="360" y="400" width="140" height="80" as="geometry" />
        </mxCell>
        <mxCell id="HKmQ01wHmtJZZ-o9WXv5-33" value="KafkaProducer" style="text;strokeColor=none;fillColor=none;align=left;verticalAlign=top;spacingLeft=4;spacingRight=4;overflow=hidden;rotatable=0;points=[[0,0.5],[1,0.5]];portConstraint=eastwest;fontColor=#1D3557;" vertex="1" parent="HKmQ01wHmtJZZ-o9WXv5-32">
          <mxGeometry y="26" width="140" height="54" as="geometry" />
        </mxCell>
        <mxCell id="HKmQ01wHmtJZZ-o9WXv5-39" value="dispatch" style="html=1;verticalAlign=bottom;startArrow=oval;startFill=1;endArrow=block;startSize=8;rounded=0;labelBackgroundColor=#F1FAEE;strokeColor=#457B9D;fontColor=#1D3557;" edge="1" parent="1">
          <mxGeometry width="60" relative="1" as="geometry">
            <mxPoint x="410" y="480" as="sourcePoint" />
            <mxPoint x="410" y="540" as="targetPoint" />
            <Array as="points">
              <mxPoint x="410" y="480" />
            </Array>
          </mxGeometry>
        </mxCell>
        <mxCell id="HKmQ01wHmtJZZ-o9WXv5-40" value="GodZilla" style="ellipse;whiteSpace=wrap;html=1;fillColor=#A8DADC;strokeColor=#457B9D;fontColor=#1D3557;" vertex="1" parent="1">
          <mxGeometry x="340" y="540" width="140" height="70" as="geometry" />
        </mxCell>
        <mxCell id="HKmQ01wHmtJZZ-o9WXv5-42" value="dispatch" style="html=1;verticalAlign=bottom;startArrow=oval;startFill=1;endArrow=block;startSize=8;rounded=0;exitX=0.413;exitY=1.048;exitDx=0;exitDy=0;exitPerimeter=0;labelBackgroundColor=#F1FAEE;strokeColor=#457B9D;fontColor=#1D3557;" edge="1" parent="1" source="HKmQ01wHmtJZZ-o9WXv5-40">
          <mxGeometry x="1" y="110" width="60" relative="1" as="geometry">
            <mxPoint x="290" y="560" as="sourcePoint" />
            <mxPoint x="400" y="650" as="targetPoint" />
            <Array as="points">
              <mxPoint x="400" y="610" />
            </Array>
            <mxPoint as="offset" />
          </mxGeometry>
        </mxCell>
        <mxCell id="HKmQ01wHmtJZZ-o9WXv5-43" value="Influx" style="shape=cylinder3;whiteSpace=wrap;html=1;boundedLbl=1;backgroundOutline=1;size=15;fillColor=#A8DADC;strokeColor=#457B9D;fontColor=#1D3557;" vertex="1" parent="1">
          <mxGeometry x="360" y="770" width="60" height="80" as="geometry" />
        </mxCell>
        <mxCell id="HKmQ01wHmtJZZ-o9WXv5-53" style="edgeStyle=orthogonalEdgeStyle;rounded=0;orthogonalLoop=1;jettySize=auto;html=1;entryX=0;entryY=0.5;entryDx=0;entryDy=0;labelBackgroundColor=#F1FAEE;strokeColor=#457B9D;fontColor=#1D3557;" edge="1" parent="1" source="HKmQ01wHmtJZZ-o9WXv5-44" target="HKmQ01wHmtJZZ-o9WXv5-46">
          <mxGeometry relative="1" as="geometry" />
        </mxCell>
        <mxCell id="HKmQ01wHmtJZZ-o9WXv5-44" value="Grafana DashBoard" style="shape=umlFrame;whiteSpace=wrap;html=1;width=180;height=80;fillColor=#A8DADC;strokeColor=#457B9D;fontColor=#1D3557;" vertex="1" parent="1">
          <mxGeometry x="510" y="720" width="240" height="140" as="geometry" />
        </mxCell>
        <mxCell id="HKmQ01wHmtJZZ-o9WXv5-45" value="dispatch" style="html=1;verticalAlign=bottom;startArrow=oval;startFill=1;endArrow=block;startSize=8;rounded=0;entryX=-0.012;entryY=0.502;entryDx=0;entryDy=0;entryPerimeter=0;exitX=1;exitY=0;exitDx=0;exitDy=52.5;exitPerimeter=0;labelBackgroundColor=#F1FAEE;strokeColor=#457B9D;fontColor=#1D3557;" edge="1" parent="1" source="HKmQ01wHmtJZZ-o9WXv5-43" target="HKmQ01wHmtJZZ-o9WXv5-44">
          <mxGeometry width="60" relative="1" as="geometry">
            <mxPoint x="420" y="730" as="sourcePoint" />
            <mxPoint x="420" y="570" as="targetPoint" />
            <Array as="points" />
          </mxGeometry>
        </mxCell>
        <mxCell id="HKmQ01wHmtJZZ-o9WXv5-46" value="" style="ellipse;html=1;shape=endState;fillColor=#A8DADC;strokeColor=#457B9D;fontColor=#1D3557;" vertex="1" parent="1">
          <mxGeometry x="810" y="770" width="30" height="30" as="geometry" />
        </mxCell>
        <mxCell id="HKmQ01wHmtJZZ-o9WXv5-52" value="" style="edgeStyle=orthogonalEdgeStyle;rounded=0;orthogonalLoop=1;jettySize=auto;html=1;labelBackgroundColor=#F1FAEE;strokeColor=#457B9D;fontColor=#1D3557;" edge="1" parent="1" source="HKmQ01wHmtJZZ-o9WXv5-48" target="HKmQ01wHmtJZZ-o9WXv5-43">
          <mxGeometry relative="1" as="geometry" />
        </mxCell>
        <mxCell id="HKmQ01wHmtJZZ-o9WXv5-48" value="Telegraph Consumer" style="html=1;fillColor=#A8DADC;strokeColor=#457B9D;fontColor=#1D3557;" vertex="1" parent="1">
          <mxGeometry x="330" y="655" width="130" height="65" as="geometry" />
        </mxCell>
        <mxCell id="HKmQ01wHmtJZZ-o9WXv5-50" style="edgeStyle=orthogonalEdgeStyle;rounded=0;orthogonalLoop=1;jettySize=auto;html=1;exitX=1;exitY=0.75;exitDx=0;exitDy=0;entryX=1;entryY=1;entryDx=0;entryDy=0;labelBackgroundColor=#F1FAEE;strokeColor=#457B9D;fontColor=#1D3557;" edge="1" parent="1" source="HKmQ01wHmtJZZ-o9WXv5-48" target="HKmQ01wHmtJZZ-o9WXv5-48">
          <mxGeometry relative="1" as="geometry" />
        </mxCell>
      </root>
    </mxGraphModel>
  </diagram>
</mxfile>
